<svg width="200" height="68" viewBox="0 0 200 68" fill="none" xmlns="http://www.w3.org/2000/svg">
<rect x="14.1553" y="11.1766" width="29.8779" height="45.6468" rx="3.31976" fill="#F7CB15"/>
<path d="M19.9648 42.7143C19.9648 41.9167 20.9802 41.5783 21.4587 42.2164L32.414 56.8233H19.9649L19.9648 42.7143Z" fill="#271033" fill-opacity="0.6"/>
<path d="M20.4493 43.6235C19.2898 42.2984 20.2308 40.2245 21.9916 40.2245C22.8147 40.2245 23.5991 40.5738 24.1497 41.1856L38.2236 56.8233H31.9991L20.4493 43.6235Z" fill="#271033"/>
<g filter="url(#filter0_d_392_3408)">
<path d="M19.9648 20.3059C19.9648 18.4725 21.4512 16.9861 23.2846 16.9861H34.9038C36.7372 16.9861 38.2235 18.4725 38.2235 20.3059V27.7754C38.2235 31.4423 35.2509 34.4149 31.584 34.4149H23.2846C21.4511 34.4149 19.9648 32.9286 19.9648 31.0951V20.3059Z" fill="#271033"/>
</g>
<path d="M61.9353 17.2714H72.5676C74.8304 17.2714 76.7935 17.6386 78.4569 18.3729C80.1203 19.1072 81.4016 20.1936 82.3008 21.6322C83.2149 23.0559 83.6719 24.8092 83.6719 26.8922C83.6719 28.4357 83.3423 29.8369 82.6829 31.0957C82.0385 32.3544 81.1469 33.4109 80.008 34.2651C78.869 35.1043 77.5503 35.6813 76.0518 35.9959L75.0852 36.3556H63.7336L63.6886 33.9954H73.197C74.9054 33.9954 76.329 33.6657 77.4679 33.0063C78.6068 32.347 79.461 31.4778 80.0304 30.3988C80.6149 29.3049 80.9071 28.136 80.9071 26.8922C80.9071 25.4086 80.5849 24.1273 79.9405 23.0484C79.3111 21.9544 78.3745 21.1152 77.1307 20.5308C75.8869 19.9464 74.3659 19.6541 72.5676 19.6541H64.7002V50H61.9353V17.2714ZM82.1434 50L73.669 35.3666L76.6362 35.3441L85.0881 49.7078V50H82.1434ZM100.497 50.4496C98.9081 50.4496 97.447 50.1573 96.1133 49.5729C94.7946 48.9885 93.6407 48.1643 92.6516 47.1003C91.6775 46.0363 90.9208 44.7775 90.3813 43.3239C89.8568 41.8553 89.5945 40.2519 89.5945 38.5135V37.547C89.5945 35.6738 89.8718 33.9804 90.4262 32.4668C90.9807 30.9533 91.745 29.657 92.719 28.5781C93.6931 27.4991 94.802 26.6749 96.0459 26.1054C97.3046 25.521 98.6234 25.2288 100.002 25.2288C101.546 25.2288 102.917 25.506 104.116 26.0605C105.314 26.6 106.318 27.3717 107.128 28.3758C107.952 29.3648 108.574 30.5412 108.993 31.9049C109.413 33.2536 109.623 34.7447 109.623 36.3781V38.019H91.213V35.7262H106.948V35.4115C106.918 34.0478 106.641 32.774 106.116 31.5902C105.607 30.3913 104.842 29.4173 103.823 28.668C102.804 27.9187 101.531 27.5441 100.002 27.5441C98.8631 27.5441 97.8142 27.7838 96.8551 28.2634C95.911 28.7429 95.0943 29.4323 94.4049 30.3314C93.7306 31.2155 93.2061 32.272 92.8314 33.5008C92.4718 34.7147 92.292 36.0634 92.292 37.547V38.5135C92.292 39.8622 92.4868 41.121 92.8764 42.2899C93.281 43.4438 93.8505 44.4628 94.5848 45.347C95.334 46.2311 96.2182 46.9205 97.2372 47.415C98.2562 47.9095 99.3801 48.1568 100.609 48.1568C102.048 48.1568 103.321 47.8945 104.43 47.37C105.539 46.8305 106.536 45.9839 107.42 44.83L109.106 46.1337C108.581 46.913 107.922 47.6323 107.128 48.2916C106.348 48.951 105.412 49.4755 104.318 49.8651C103.224 50.2548 101.95 50.4496 100.497 50.4496ZM118.063 30.8709V50H115.388V25.6784H117.951L118.063 30.8709ZM117.456 36.3331L116.265 35.6588C116.355 34.2202 116.647 32.8714 117.141 31.6127C117.636 30.3539 118.303 29.2449 119.142 28.2859C119.996 27.3268 120.993 26.5775 122.132 26.038C123.285 25.4985 124.559 25.2288 125.953 25.2288C127.167 25.2288 128.253 25.3936 129.212 25.7233C130.171 26.053 130.988 26.5775 131.662 27.2968C132.337 28.0161 132.846 28.9377 133.191 30.0616C133.551 31.1856 133.73 32.5568 133.73 34.1752V50H131.033V34.1527C131.033 32.4743 130.801 31.1631 130.336 30.219C129.872 29.2599 129.212 28.5781 128.358 28.1735C127.504 27.7688 126.492 27.5665 125.324 27.5665C124.035 27.5665 122.903 27.8513 121.929 28.4207C120.97 28.9752 120.161 29.702 119.502 30.6011C118.857 31.4853 118.363 32.4369 118.018 33.4559C117.673 34.4599 117.486 35.419 117.456 36.3331ZM150.353 25.6784V27.8812H138.17V25.6784H150.353ZM142.643 19.4294H145.318V44.0882C145.318 45.2121 145.467 46.0588 145.767 46.6282C146.067 47.1977 146.457 47.5798 146.936 47.7746C147.416 47.9695 147.933 48.0669 148.487 48.0669C148.892 48.0669 149.281 48.0444 149.656 47.9994C150.031 47.9395 150.368 47.8795 150.667 47.8196L150.78 50.0899C150.45 50.1948 150.023 50.2772 149.499 50.3372C148.974 50.4121 148.45 50.4496 147.925 50.4496C146.891 50.4496 145.977 50.2622 145.183 49.8876C144.389 49.498 143.767 48.8386 143.317 47.9095C142.867 46.9654 142.643 45.6841 142.643 44.0657V19.4294ZM159.445 15.4732V50H156.77V15.4732H159.445ZM174.471 47.5723L182.046 25.6784H184.946L174.651 53.9112C174.441 54.4657 174.172 55.0801 173.842 55.7545C173.527 56.4288 173.108 57.0732 172.583 57.6876C172.074 58.317 171.429 58.8265 170.65 59.2161C169.886 59.6208 168.949 59.8231 167.84 59.8231C167.555 59.8231 167.188 59.7856 166.739 59.7107C166.304 59.6507 165.989 59.5908 165.795 59.5308L165.772 57.2605C165.937 57.3055 166.177 57.3429 166.491 57.3729C166.806 57.4029 167.023 57.4179 167.143 57.4179C168.117 57.4179 168.934 57.253 169.593 56.9234C170.268 56.5937 170.83 56.0991 171.279 55.4398C171.729 54.7954 172.126 53.9862 172.471 53.0121L174.471 47.5723ZM167.391 25.6784L175.146 46.5608L175.865 49.3706L173.909 50.472L164.468 25.6784H167.391Z" fill="#F7CB15"/>
<defs>
<filter id="filter0_d_392_3408" x="19.9648" y="16.9861" width="19.0887" height="18.2587" filterUnits="userSpaceOnUse" color-interpolation-filters="sRGB">
<feFlood flood-opacity="0" result="BackgroundImageFix"/>
<feColorMatrix in="SourceAlpha" type="matrix" values="0 0 0 0 0 0 0 0 0 0 0 0 0 0 0 0 0 0 127 0" result="hardAlpha"/>
<feOffset dx="0.829941" dy="0.829941"/>
<feComposite in2="hardAlpha" operator="out"/>
<feColorMatrix type="matrix" values="0 0 0 0 0 0 0 0 0 0 0 0 0 0 0 0 0 0 0.25 0"/>
<feBlend mode="normal" in2="BackgroundImageFix" result="effect1_dropShadow_392_3408"/>
<feBlend mode="normal" in="SourceGraphic" in2="effect1_dropShadow_392_3408" result="shape"/>
</filter>
</defs>
</svg>
