<svg width="22" height="20" viewBox="0 0 22 20" fill="none" xmlns="http://www.w3.org/2000/svg">
<path d="M18.1004 19.4L14.6004 15.95C14.0171 16.1333 13.4254 16.2708 12.8254 16.3625C12.2254 16.4541 11.6171 16.5 11.0004 16.5C8.76706 16.5 6.72539 15.9 4.87539 14.7C3.02539 13.5 1.57539 11.9166 0.525391 9.94998C0.442057 9.79998 0.379557 9.64581 0.337891 9.48748C0.296224 9.32914 0.275391 9.16664 0.275391 8.99998C0.275391 8.83331 0.296224 8.67081 0.337891 8.51248C0.379557 8.35414 0.442057 8.19998 0.525391 8.04998C0.892057 7.39998 1.28372 6.76664 1.70039 6.14998C2.11706 5.53331 2.60039 4.98331 3.15039 4.49998L1.07539 2.39998C0.892057 2.21664 0.800391 1.98748 0.800391 1.71248C0.800391 1.43748 0.900391 1.19998 1.10039 0.999976C1.28372 0.816642 1.51706 0.724976 1.80039 0.724976C2.08372 0.724976 2.31706 0.816642 2.50039 0.999976L19.5004 18C19.6837 18.1833 19.7796 18.4125 19.7879 18.6875C19.7962 18.9625 19.7004 19.2 19.5004 19.4C19.3171 19.5833 19.0837 19.675 18.8004 19.675C18.5171 19.675 18.2837 19.5833 18.1004 19.4ZM11.0004 13.5C11.1837 13.5 11.3587 13.4916 11.5254 13.475C11.6921 13.4583 11.8587 13.425 12.0254 13.375L6.62539 7.97498C6.57539 8.14164 6.54206 8.30831 6.52539 8.47498C6.50872 8.64164 6.50039 8.81664 6.50039 8.99998C6.50039 10.25 6.93789 11.3125 7.81289 12.1875C8.68789 13.0625 9.75039 13.5 11.0004 13.5ZM11.0004 1.49998C13.2337 1.49998 15.2796 2.10414 17.1379 3.31248C18.9962 4.52081 20.4504 6.10831 21.5004 8.07498C21.5837 8.20831 21.6462 8.35414 21.6879 8.51248C21.7296 8.67081 21.7504 8.83331 21.7504 8.99998C21.7504 9.16664 21.7337 9.32914 21.7004 9.48748C21.6671 9.64581 21.6087 9.79164 21.5254 9.92498C21.2087 10.5416 20.8546 11.125 20.4629 11.675C20.0712 12.225 19.6337 12.7416 19.1504 13.225C18.9171 13.4583 18.6421 13.5666 18.3254 13.55C18.0087 13.5333 17.7337 13.4083 17.5004 13.175L15.5004 11.175C15.3837 11.0583 15.3087 10.9208 15.2754 10.7625C15.2421 10.6041 15.2504 10.4416 15.3004 10.275C15.3671 10.0583 15.4171 9.84998 15.4504 9.64998C15.4837 9.44998 15.5004 9.23331 15.5004 8.99998C15.5004 7.74998 15.0629 6.68748 14.1879 5.81248C13.3129 4.93748 12.2504 4.49998 11.0004 4.49998C10.7671 4.49998 10.5504 4.51664 10.3504 4.54998C10.1504 4.58331 9.94206 4.63331 9.72539 4.69998C9.55872 4.74998 9.39206 4.75831 9.22539 4.72498C9.05872 4.69164 8.91706 4.61664 8.80039 4.49998L7.97539 3.67498C7.65872 3.35831 7.55456 2.99164 7.66289 2.57498C7.77122 2.15831 8.03372 1.89164 8.45039 1.77498C8.86706 1.69164 9.28789 1.62498 9.71289 1.57498C10.1379 1.52498 10.5671 1.49998 11.0004 1.49998ZM12.9754 7.14998C13.1587 7.36664 13.3129 7.60414 13.4379 7.86248C13.5629 8.12081 13.6421 8.39164 13.6754 8.67498C13.6921 8.80831 13.6421 8.89998 13.5254 8.94998C13.4087 8.99998 13.3004 8.97498 13.2004 8.87498L11.1504 6.82498C11.0504 6.72498 11.0296 6.61664 11.0879 6.49998C11.1462 6.38331 11.2421 6.32498 11.3754 6.32498C11.6921 6.35831 11.9837 6.44581 12.2504 6.58748C12.5171 6.72914 12.7587 6.91664 12.9754 7.14998Z" fill="#3C3C43" fill-opacity="0.6"/>
</svg>
