<svg width="20" height="19" viewBox="0 0 20 19" fill="none" xmlns="http://www.w3.org/2000/svg">
<path d="M1 0C0.448 0 0 0.448 0 1V12C0 12.552 0.448 13 1 13H8.10547C8.61547 13 9.04361 12.6164 9.09961 12.1094L10 4L10.9004 12.1094C10.9564 12.6154 11.3845 13 11.8945 13H19C19.552 13 20 12.552 20 12V1C20 0.448 19.552 0 19 0H1ZM3 15C2.46957 15 1.96086 15.2107 1.58579 15.5858C1.21071 15.9609 1 16.4696 1 17C1 17.5304 1.21071 18.0391 1.58579 18.4142C1.96086 18.7893 2.46957 19 3 19C3.53043 19 4.03914 18.7893 4.41421 18.4142C4.78929 18.0391 5 17.5304 5 17C5 16.4696 4.78929 15.9609 4.41421 15.5858C4.03914 15.2107 3.53043 15 3 15ZM10 15C9.46957 15 8.96086 15.2107 8.58579 15.5858C8.21071 15.9609 8 16.4696 8 17C8 17.5304 8.21071 18.0391 8.58579 18.4142C8.96086 18.7893 9.46957 19 10 19C10.5304 19 11.0391 18.7893 11.4142 18.4142C11.7893 18.0391 12 17.5304 12 17C12 16.4696 11.7893 15.9609 11.4142 15.5858C11.0391 15.2107 10.5304 15 10 15ZM17 15C16.4696 15 15.9609 15.2107 15.5858 15.5858C15.2107 15.9609 15 16.4696 15 17C15 17.5304 15.2107 18.0391 15.5858 18.4142C15.9609 18.7893 16.4696 19 17 19C17.5304 19 18.0391 18.7893 18.4142 18.4142C18.7893 18.0391 19 17.5304 19 17C19 16.4696 18.7893 15.9609 18.4142 15.5858C18.0391 15.2107 17.5304 15 17 15Z" fill="#EBEBF5" fill-opacity="0.6"/>
</svg>
