<svg width="200" height="68" viewBox="0 0 200 68" fill="none" xmlns="http://www.w3.org/2000/svg">
<rect x="14.1553" y="11.1768" width="29.8779" height="45.6468" rx="3.31976" fill="#F7CB15"/>
<path d="M19.9648 42.7145C19.9648 41.9169 20.9802 41.5784 21.4587 42.2165L32.414 56.8234H19.9649L19.9648 42.7145Z" fill="#271033" fill-opacity="0.6"/>
<path d="M20.4497 43.6236C19.2902 42.2985 20.2313 40.2246 21.9921 40.2246C22.8152 40.2246 23.5996 40.5739 24.1502 41.1857L38.2241 56.8234H31.9996L20.4497 43.6236Z" fill="#271033"/>
<g filter="url(#filter0_d_566_3488)">
<path d="M19.9648 20.3061C19.9648 18.4726 21.4512 16.9863 23.2846 16.9863H34.9038C36.7372 16.9863 38.2235 18.4726 38.2235 20.3061V27.7756C38.2235 31.4425 35.2509 34.4151 31.584 34.4151H23.2846C21.4511 34.4151 19.9648 32.9288 19.9648 31.0953V20.3061Z" fill="#271033"/>
</g>
<path d="M61.9348 17.2714H72.5671C74.8299 17.2714 76.7931 17.6386 78.4565 18.3729C80.1199 19.1072 81.4011 20.1936 82.3003 21.6322C83.2144 23.0559 83.6714 24.8092 83.6714 26.8922C83.6714 28.4357 83.3418 29.8369 82.6824 31.0957C82.038 32.3544 81.1464 33.4109 80.0075 34.2651C78.8686 35.1043 77.5498 35.6813 76.0513 35.9959L75.0847 36.3556H63.7331L63.6881 33.9954H73.1965C74.9049 33.9954 76.3285 33.6657 77.4674 33.0063C78.6063 32.347 79.4605 31.4778 80.0299 30.3988C80.6144 29.3049 80.9066 28.136 80.9066 26.8922C80.9066 25.4086 80.5844 24.1273 79.94 23.0484C79.3106 21.9544 78.374 21.1152 77.1302 20.5308C75.8864 19.9464 74.3654 19.6541 72.5671 19.6541H64.6997V50H61.9348V17.2714ZM82.1429 50L73.6686 35.3666L76.6357 35.3441L85.0876 49.7078V50H82.1429ZM100.496 50.4496C98.9076 50.4496 97.4465 50.1573 96.1128 49.5729C94.7941 48.9885 93.6402 48.1643 92.6511 47.1003C91.6771 46.0363 90.9203 44.7775 90.3808 43.3239C89.8563 41.8553 89.5941 40.2519 89.5941 38.5135V37.547C89.5941 35.6738 89.8713 33.9804 90.4258 32.4668C90.9802 30.9533 91.7445 29.657 92.7186 28.5781C93.6926 27.4991 94.8016 26.6749 96.0454 26.1054C97.3042 25.521 98.6229 25.2288 100.002 25.2288C101.545 25.2288 102.916 25.506 104.115 26.0605C105.314 26.6 106.318 27.3717 107.127 28.3758C107.951 29.3648 108.573 30.5412 108.993 31.9049C109.413 33.2536 109.622 34.7447 109.622 36.3781V38.019H91.2125V35.7262H106.947V35.4115C106.917 34.0478 106.64 32.774 106.116 31.5902C105.606 30.3913 104.842 29.4173 103.823 28.668C102.804 27.9187 101.53 27.5441 100.002 27.5441C98.8627 27.5441 97.8137 27.7838 96.8546 28.2634C95.9105 28.7429 95.0938 29.4323 94.4044 30.3314C93.7301 31.2155 93.2056 32.272 92.8309 33.5008C92.4713 34.7147 92.2915 36.0634 92.2915 37.547V38.5135C92.2915 39.8622 92.4863 41.121 92.8759 42.2899C93.2805 43.4438 93.85 44.4628 94.5843 45.347C95.3335 46.2311 96.2177 46.9205 97.2367 47.415C98.2557 47.9095 99.3797 48.1568 100.608 48.1568C102.047 48.1568 103.321 47.8945 104.43 47.37C105.539 46.8305 106.535 45.9839 107.419 44.83L109.105 46.1337C108.581 46.913 107.921 47.6323 107.127 48.2916C106.348 48.951 105.411 49.4755 104.317 49.8651C103.223 50.2548 101.95 50.4496 100.496 50.4496ZM118.063 30.8709V50H115.388V25.6784H117.95L118.063 30.8709ZM117.456 36.3331L116.264 35.6588C116.354 34.2202 116.646 32.8714 117.141 31.6127C117.635 30.3539 118.302 29.2449 119.141 28.2859C119.996 27.3268 120.992 26.5775 122.131 26.038C123.285 25.4985 124.559 25.2288 125.952 25.2288C127.166 25.2288 128.253 25.3936 129.212 25.7233C130.171 26.053 130.988 26.5775 131.662 27.2968C132.336 28.0161 132.846 28.9377 133.19 30.0616C133.55 31.1856 133.73 32.5568 133.73 34.1752V50H131.033V34.1527C131.033 32.4743 130.8 31.1631 130.336 30.219C129.871 29.2599 129.212 28.5781 128.358 28.1735C127.503 27.7688 126.492 27.5665 125.323 27.5665C124.034 27.5665 122.903 27.8513 121.929 28.4207C120.97 28.9752 120.161 29.702 119.501 30.6011C118.857 31.4853 118.362 32.4369 118.018 33.4559C117.673 34.4599 117.486 35.419 117.456 36.3331ZM150.352 25.6784V27.8812H138.169V25.6784H150.352ZM142.642 19.4294H145.317V44.0882C145.317 45.2121 145.467 46.0588 145.767 46.6282C146.066 47.1977 146.456 47.5798 146.936 47.7746C147.415 47.9695 147.932 48.0669 148.487 48.0669C148.891 48.0669 149.281 48.0444 149.655 47.9994C150.03 47.9395 150.367 47.8795 150.667 47.8196L150.779 50.0899C150.45 50.1948 150.023 50.2772 149.498 50.3372C148.974 50.4121 148.449 50.4496 147.925 50.4496C146.891 50.4496 145.977 50.2622 145.182 49.8876C144.388 49.498 143.766 48.8386 143.317 47.9095C142.867 46.9654 142.642 45.6841 142.642 44.0657V19.4294ZM159.444 15.4732V50H156.769V15.4732H159.444ZM174.471 47.5723L182.046 25.6784H184.946L174.651 53.9112C174.441 54.4657 174.171 55.0801 173.841 55.7545C173.527 56.4288 173.107 57.0732 172.583 57.6876C172.073 58.317 171.429 58.8265 170.649 59.2161C169.885 59.6208 168.949 59.8231 167.84 59.8231C167.555 59.8231 167.188 59.7856 166.738 59.7107C166.304 59.6507 165.989 59.5908 165.794 59.5308L165.772 57.2605C165.936 57.3055 166.176 57.3429 166.491 57.3729C166.806 57.4029 167.023 57.4179 167.143 57.4179C168.117 57.4179 168.934 57.253 169.593 56.9234C170.267 56.5937 170.829 56.0991 171.279 55.4398C171.728 54.7954 172.126 53.9862 172.47 53.0121L174.471 47.5723ZM167.39 25.6784L175.145 46.5608L175.864 49.3706L173.909 50.472L164.468 25.6784H167.39Z" fill="#F7CB15"/>
<defs>
<filter id="filter0_d_566_3488" x="19.9648" y="16.9863" width="19.0887" height="18.2587" filterUnits="userSpaceOnUse" color-interpolation-filters="sRGB">
<feFlood flood-opacity="0" result="BackgroundImageFix"/>
<feColorMatrix in="SourceAlpha" type="matrix" values="0 0 0 0 0 0 0 0 0 0 0 0 0 0 0 0 0 0 127 0" result="hardAlpha"/>
<feOffset dx="0.829941" dy="0.829941"/>
<feComposite in2="hardAlpha" operator="out"/>
<feColorMatrix type="matrix" values="0 0 0 0 0 0 0 0 0 0 0 0 0 0 0 0 0 0 0.25 0"/>
<feBlend mode="normal" in2="BackgroundImageFix" result="effect1_dropShadow_566_3488"/>
<feBlend mode="normal" in="SourceGraphic" in2="effect1_dropShadow_566_3488" result="shape"/>
</filter>
</defs>
</svg>
